<svg version="1.1" xmlns="http://www.w3.org/2000/svg" xmlns:xlink="http://www.w3.org/1999/xlink" width="1588.58859" height="1293.91485" viewBox="0,0,1588.58859,1293.91485"><defs><linearGradient x1="-52.78716" y1="398.75135" x2="1535.80143" y2="398.75135" gradientUnits="userSpaceOnUse" id="color-1"><stop offset="0" stop-color="#000000"/><stop offset="1" stop-color="#00b6ff"/></linearGradient><linearGradient x1="1044.81044" y1="-205.60301" x2="1046.31194" y2="-205.60301" gradientUnits="userSpaceOnUse" id="color-2"><stop offset="0" stop-color="#003aff"/><stop offset="1" stop-color="#00b6ff"/></linearGradient><linearGradient x1="417.41742" y1="400" x2="1082.58258" y2="400" gradientUnits="userSpaceOnUse" id="color-3"><stop offset="0" stop-color="#000000"/><stop offset="1" stop-color="#00b6ff"/></linearGradient><linearGradient x1="849.43628" y1="569.83529" x2="650.56372" y2="230.16471" gradientUnits="userSpaceOnUse" id="color-4"><stop offset="0" stop-color="#000000"/><stop offset="1" stop-color="#00b6ff"/></linearGradient><linearGradient x1="841.72413" y1="332.46915" x2="658.27587" y2="467.53085" gradientUnits="userSpaceOnUse" id="color-5"><stop offset="0" stop-color="#000000"/><stop offset="1" stop-color="#00b6ff"/></linearGradient><linearGradient x1="716.48303" y1="336.69578" x2="783.51697" y2="463.30422" gradientUnits="userSpaceOnUse" id="color-6"><stop offset="0" stop-color="#000000"/><stop offset="1" stop-color="#00b6ff"/></linearGradient><linearGradient x1="787.27009" y1="382.36668" x2="712.72991" y2="417.63332" gradientUnits="userSpaceOnUse" id="color-7"><stop offset="0" stop-color="#000000"/><stop offset="1" stop-color="#00b6ff"/></linearGradient><linearGradient x1="754.89097" y1="428.01071" x2="745.10903" y2="371.98929" gradientUnits="userSpaceOnUse" id="color-8"><stop offset="0" stop-color="#000000"/><stop offset="1" stop-color="#00b6ff"/></linearGradient><linearGradient x1="732.2506" y1="400" x2="767.7494" y2="400" gradientUnits="userSpaceOnUse" id="color-9"><stop offset="0" stop-color="#000000"/><stop offset="1" stop-color="#00b6ff"/></linearGradient><linearGradient x1="755.30675" y1="409.06384" x2="744.69325" y2="390.93616" gradientUnits="userSpaceOnUse" id="color-10"><stop offset="0" stop-color="#000000"/><stop offset="1" stop-color="#00b6ff"/></linearGradient><linearGradient x1="754.89517" y1="396.39599" x2="745.10483" y2="403.60401" gradientUnits="userSpaceOnUse" id="color-11"><stop offset="0" stop-color="#000000"/><stop offset="1" stop-color="#00b6ff"/></linearGradient><linearGradient x1="748.21125" y1="396.62156" x2="751.78875" y2="403.37844" gradientUnits="userSpaceOnUse" id="color-12"><stop offset="0" stop-color="#000000"/><stop offset="1" stop-color="#00b6ff"/></linearGradient><linearGradient x1="751.98904" y1="399.05894" x2="748.01096" y2="400.94106" gradientUnits="userSpaceOnUse" id="color-13"><stop offset="0" stop-color="#000000"/><stop offset="1" stop-color="#00b6ff"/></linearGradient><linearGradient x1="750.26102" y1="401.49489" x2="749.73898" y2="398.50511" gradientUnits="userSpaceOnUse" id="color-14"><stop offset="0" stop-color="#000000"/><stop offset="1" stop-color="#00b6ff"/></linearGradient><linearGradient x1="-23.52853" y1="302.8979" x2="641.63664" y2="302.8979" gradientUnits="userSpaceOnUse" id="color-15"><stop offset="0" stop-color="#000000"/><stop offset="1" stop-color="#00b6ff"/></linearGradient><linearGradient x1="408.49033" y1="472.73319" x2="209.61777" y2="133.06261" gradientUnits="userSpaceOnUse" id="color-16"><stop offset="0" stop-color="#000000"/><stop offset="1" stop-color="#00b6ff"/></linearGradient><linearGradient x1="400.77818" y1="235.36705" x2="217.32993" y2="370.42875" gradientUnits="userSpaceOnUse" id="color-17"><stop offset="0" stop-color="#000000"/><stop offset="1" stop-color="#00b6ff"/></linearGradient><linearGradient x1="275.53708" y1="239.59368" x2="342.57102" y2="366.20212" gradientUnits="userSpaceOnUse" id="color-18"><stop offset="0" stop-color="#000000"/><stop offset="1" stop-color="#00b6ff"/></linearGradient><linearGradient x1="346.32414" y1="285.26458" x2="271.78397" y2="320.53121" gradientUnits="userSpaceOnUse" id="color-19"><stop offset="0" stop-color="#000000"/><stop offset="1" stop-color="#00b6ff"/></linearGradient><linearGradient x1="313.94502" y1="330.90861" x2="304.16309" y2="274.88718" gradientUnits="userSpaceOnUse" id="color-20"><stop offset="0" stop-color="#000000"/><stop offset="1" stop-color="#00b6ff"/></linearGradient><linearGradient x1="291.30465" y1="302.8979" x2="326.80345" y2="302.8979" gradientUnits="userSpaceOnUse" id="color-21"><stop offset="0" stop-color="#000000"/><stop offset="1" stop-color="#00b6ff"/></linearGradient><linearGradient x1="314.36081" y1="311.96173" x2="303.7473" y2="293.83406" gradientUnits="userSpaceOnUse" id="color-22"><stop offset="0" stop-color="#000000"/><stop offset="1" stop-color="#00b6ff"/></linearGradient><linearGradient x1="313.94922" y1="299.29388" x2="304.15888" y2="306.50191" gradientUnits="userSpaceOnUse" id="color-23"><stop offset="0" stop-color="#000000"/><stop offset="1" stop-color="#00b6ff"/></linearGradient><linearGradient x1="307.26531" y1="299.51945" x2="310.8428" y2="306.27634" gradientUnits="userSpaceOnUse" id="color-24"><stop offset="0" stop-color="#000000"/><stop offset="1" stop-color="#00b6ff"/></linearGradient><linearGradient x1="311.0431" y1="301.95684" x2="307.06501" y2="303.83896" gradientUnits="userSpaceOnUse" id="color-25"><stop offset="0" stop-color="#000000"/><stop offset="1" stop-color="#00b6ff"/></linearGradient><linearGradient x1="309.31508" y1="304.39278" x2="308.79303" y2="301.40301" gradientUnits="userSpaceOnUse" id="color-26"><stop offset="0" stop-color="#000000"/><stop offset="1" stop-color="#00b6ff"/></linearGradient><linearGradient x1="844.83483" y1="473.06306" x2="1510" y2="473.06306" gradientUnits="userSpaceOnUse" id="color-27"><stop offset="0" stop-color="#000000"/><stop offset="1" stop-color="#00b6ff"/></linearGradient><linearGradient x1="1276.8537" y1="642.89835" x2="1077.98114" y2="303.22777" gradientUnits="userSpaceOnUse" id="color-28"><stop offset="0" stop-color="#000000"/><stop offset="1" stop-color="#00b6ff"/></linearGradient><linearGradient x1="1269.14154" y1="405.53221" x2="1085.69329" y2="540.59391" gradientUnits="userSpaceOnUse" id="color-29"><stop offset="0" stop-color="#000000"/><stop offset="1" stop-color="#00b6ff"/></linearGradient><linearGradient x1="1143.90045" y1="409.75884" x2="1210.93439" y2="536.36728" gradientUnits="userSpaceOnUse" id="color-30"><stop offset="0" stop-color="#000000"/><stop offset="1" stop-color="#00b6ff"/></linearGradient><linearGradient x1="1214.6875" y1="455.42975" x2="1140.14733" y2="490.69638" gradientUnits="userSpaceOnUse" id="color-31"><stop offset="0" stop-color="#000000"/><stop offset="1" stop-color="#00b6ff"/></linearGradient><linearGradient x1="1182.30838" y1="501.07378" x2="1172.52645" y2="445.05235" gradientUnits="userSpaceOnUse" id="color-32"><stop offset="0" stop-color="#000000"/><stop offset="1" stop-color="#00b6ff"/></linearGradient><linearGradient x1="1159.66802" y1="473.06306" x2="1195.16682" y2="473.06306" gradientUnits="userSpaceOnUse" id="color-33"><stop offset="0" stop-color="#000000"/><stop offset="1" stop-color="#00b6ff"/></linearGradient><linearGradient x1="1182.72417" y1="482.1269" x2="1172.11066" y2="463.99923" gradientUnits="userSpaceOnUse" id="color-34"><stop offset="0" stop-color="#000000"/><stop offset="1" stop-color="#00b6ff"/></linearGradient><linearGradient x1="1182.31259" y1="469.45905" x2="1172.52225" y2="476.66708" gradientUnits="userSpaceOnUse" id="color-35"><stop offset="0" stop-color="#000000"/><stop offset="1" stop-color="#00b6ff"/></linearGradient><linearGradient x1="1175.62867" y1="469.68462" x2="1179.20616" y2="476.44151" gradientUnits="userSpaceOnUse" id="color-36"><stop offset="0" stop-color="#000000"/><stop offset="1" stop-color="#00b6ff"/></linearGradient><linearGradient x1="1179.40646" y1="472.122" x2="1175.42837" y2="474.00412" gradientUnits="userSpaceOnUse" id="color-37"><stop offset="0" stop-color="#000000"/><stop offset="1" stop-color="#00b6ff"/></linearGradient><linearGradient x1="1177.67844" y1="474.55795" x2="1177.15639" y2="471.56818" gradientUnits="userSpaceOnUse" id="color-38"><stop offset="0" stop-color="#000000"/><stop offset="1" stop-color="#00b6ff"/></linearGradient><linearGradient x1="580.92567" y1="678.77575" x2="946.59217" y2="123.13853" gradientUnits="userSpaceOnUse" id="color-39"><stop offset="0" stop-color="#000000"/><stop offset="1" stop-color="#00b6ff"/></linearGradient><linearGradient x1="960.29255" y1="411.25921" x2="567.2253" y2="390.65507" gradientUnits="userSpaceOnUse" id="color-40"><stop offset="0" stop-color="#000000"/><stop offset="1" stop-color="#00b6ff"/></linearGradient><linearGradient x1="757.77212" y1="287.2123" x2="769.74573" y2="514.70198" gradientUnits="userSpaceOnUse" id="color-41"><stop offset="0" stop-color="#000000"/><stop offset="1" stop-color="#00b6ff"/></linearGradient><linearGradient x1="692.453" y1="394.15439" x2="835.06484" y2="407.7599" gradientUnits="userSpaceOnUse" id="color-42"><stop offset="0" stop-color="#000000"/><stop offset="1" stop-color="#00b6ff"/></linearGradient><linearGradient x1="769.51794" y1="360.13035" x2="757.99991" y2="441.78393" gradientUnits="userSpaceOnUse" id="color-43"><stop offset="0" stop-color="#000000"/><stop offset="1" stop-color="#00b6ff"/></linearGradient><linearGradient x1="789.84606" y1="412.27009" x2="737.67178" y2="389.6442" gradientUnits="userSpaceOnUse" id="color-44"><stop offset="0" stop-color="#000000"/><stop offset="1" stop-color="#00b6ff"/></linearGradient><linearGradient x1="754.00141" y1="415.78388" x2="773.51644" y2="386.13041" gradientUnits="userSpaceOnUse" id="color-45"><stop offset="0" stop-color="#000000"/><stop offset="1" stop-color="#00b6ff"/></linearGradient><linearGradient x1="774.24761" y1="401.50695" x2="753.27024" y2="400.40734" gradientUnits="userSpaceOnUse" id="color-46"><stop offset="0" stop-color="#000000"/><stop offset="1" stop-color="#00b6ff"/></linearGradient><linearGradient x1="763.43942" y1="394.88676" x2="764.07843" y2="407.02752" gradientUnits="userSpaceOnUse" id="color-47"><stop offset="0" stop-color="#000000"/><stop offset="1" stop-color="#00b6ff"/></linearGradient><linearGradient x1="759.95344" y1="400.59409" x2="767.5644" y2="401.3202" gradientUnits="userSpaceOnUse" id="color-48"><stop offset="0" stop-color="#000000"/><stop offset="1" stop-color="#00b6ff"/></linearGradient><linearGradient x1="764.06627" y1="398.77828" x2="763.45157" y2="403.136" gradientUnits="userSpaceOnUse" id="color-49"><stop offset="0" stop-color="#000000"/><stop offset="1" stop-color="#00b6ff"/></linearGradient><linearGradient x1="765.15115" y1="401.56089" x2="762.36669" y2="400.35339" gradientUnits="userSpaceOnUse" id="color-50"><stop offset="0" stop-color="#000000"/><stop offset="1" stop-color="#00b6ff"/></linearGradient><linearGradient x1="257.40798" y1="993.7336" x2="623.07448" y2="438.09638" gradientUnits="userSpaceOnUse" id="color-51"><stop offset="0" stop-color="#000000"/><stop offset="1" stop-color="#00b6ff"/></linearGradient><linearGradient x1="636.77486" y1="726.21706" x2="243.7076" y2="705.61292" gradientUnits="userSpaceOnUse" id="color-52"><stop offset="0" stop-color="#000000"/><stop offset="1" stop-color="#00b6ff"/></linearGradient><linearGradient x1="434.25443" y1="602.17015" x2="446.22804" y2="829.65983" gradientUnits="userSpaceOnUse" id="color-53"><stop offset="0" stop-color="#000000"/><stop offset="1" stop-color="#00b6ff"/></linearGradient><linearGradient x1="368.93531" y1="709.11224" x2="511.54715" y2="722.71775" gradientUnits="userSpaceOnUse" id="color-54"><stop offset="0" stop-color="#000000"/><stop offset="1" stop-color="#00b6ff"/></linearGradient><linearGradient x1="446.00025" y1="675.0882" x2="434.48222" y2="756.74178" gradientUnits="userSpaceOnUse" id="color-55"><stop offset="0" stop-color="#000000"/><stop offset="1" stop-color="#00b6ff"/></linearGradient><linearGradient x1="466.32837" y1="727.22794" x2="414.15409" y2="704.60205" gradientUnits="userSpaceOnUse" id="color-56"><stop offset="0" stop-color="#000000"/><stop offset="1" stop-color="#00b6ff"/></linearGradient><linearGradient x1="430.48371" y1="730.74173" x2="449.99875" y2="701.08826" gradientUnits="userSpaceOnUse" id="color-57"><stop offset="0" stop-color="#000000"/><stop offset="1" stop-color="#00b6ff"/></linearGradient><linearGradient x1="450.72991" y1="716.4648" x2="429.75255" y2="715.36519" gradientUnits="userSpaceOnUse" id="color-58"><stop offset="0" stop-color="#000000"/><stop offset="1" stop-color="#00b6ff"/></linearGradient><linearGradient x1="439.92172" y1="709.84461" x2="440.56074" y2="721.98537" gradientUnits="userSpaceOnUse" id="color-59"><stop offset="0" stop-color="#000000"/><stop offset="1" stop-color="#00b6ff"/></linearGradient><linearGradient x1="436.43575" y1="715.55194" x2="444.04671" y2="716.27805" gradientUnits="userSpaceOnUse" id="color-60"><stop offset="0" stop-color="#000000"/><stop offset="1" stop-color="#00b6ff"/></linearGradient><linearGradient x1="440.54858" y1="713.73613" x2="439.93388" y2="718.09385" gradientUnits="userSpaceOnUse" id="color-61"><stop offset="0" stop-color="#000000"/><stop offset="1" stop-color="#00b6ff"/></linearGradient><linearGradient x1="441.63346" y1="716.51874" x2="438.849" y2="715.31124" gradientUnits="userSpaceOnUse" id="color-62"><stop offset="0" stop-color="#000000"/><stop offset="1" stop-color="#00b6ff"/></linearGradient><linearGradient x1="876.92552" y1="361.90362" x2="1242.59202" y2="-193.7336" gradientUnits="userSpaceOnUse" id="color-63"><stop offset="0" stop-color="#000000"/><stop offset="1" stop-color="#00b6ff"/></linearGradient><linearGradient x1="1256.2924" y1="94.38708" x2="863.22514" y2="73.78294" gradientUnits="userSpaceOnUse" id="color-64"><stop offset="0" stop-color="#000000"/><stop offset="1" stop-color="#00b6ff"/></linearGradient><linearGradient x1="1053.77196" y1="-29.65983" x2="1065.74557" y2="197.82985" gradientUnits="userSpaceOnUse" id="color-65"><stop offset="0" stop-color="#000000"/><stop offset="1" stop-color="#00b6ff"/></linearGradient><linearGradient x1="988.45285" y1="77.28225" x2="1131.06469" y2="90.88776" gradientUnits="userSpaceOnUse" id="color-66"><stop offset="0" stop-color="#000000"/><stop offset="1" stop-color="#00b6ff"/></linearGradient><linearGradient x1="1065.51778" y1="43.25822" x2="1053.99975" y2="124.9118" gradientUnits="userSpaceOnUse" id="color-67"><stop offset="0" stop-color="#000000"/><stop offset="1" stop-color="#00b6ff"/></linearGradient><linearGradient x1="1085.84591" y1="95.39795" x2="1033.67163" y2="72.77206" gradientUnits="userSpaceOnUse" id="color-68"><stop offset="0" stop-color="#000000"/><stop offset="1" stop-color="#00b6ff"/></linearGradient><linearGradient x1="1050.00125" y1="98.91174" x2="1069.51629" y2="69.25827" gradientUnits="userSpaceOnUse" id="color-69"><stop offset="0" stop-color="#000000"/><stop offset="1" stop-color="#00b6ff"/></linearGradient><linearGradient x1="1070.24745" y1="84.63481" x2="1049.27009" y2="83.5352" gradientUnits="userSpaceOnUse" id="color-70"><stop offset="0" stop-color="#000000"/><stop offset="1" stop-color="#00b6ff"/></linearGradient><linearGradient x1="1059.43926" y1="78.01463" x2="1060.07828" y2="90.15539" gradientUnits="userSpaceOnUse" id="color-71"><stop offset="0" stop-color="#000000"/><stop offset="1" stop-color="#00b6ff"/></linearGradient><linearGradient x1="1055.95329" y1="83.72195" x2="1063.56425" y2="84.44806" gradientUnits="userSpaceOnUse" id="color-72"><stop offset="0" stop-color="#000000"/><stop offset="1" stop-color="#00b6ff"/></linearGradient><linearGradient x1="1060.06612" y1="81.90615" x2="1059.45142" y2="86.26387" gradientUnits="userSpaceOnUse" id="color-73"><stop offset="0" stop-color="#000000"/><stop offset="1" stop-color="#00b6ff"/></linearGradient><linearGradient x1="1061.151" y1="84.68876" x2="1058.36654" y2="83.48126" gradientUnits="userSpaceOnUse" id="color-74"><stop offset="0" stop-color="#000000"/><stop offset="1" stop-color="#00b6ff"/></linearGradient></defs><g transform="translate(52.78716,246.95743)"><g data-paper-data="{&quot;isPaintingLayer&quot;:true}" fill-rule="nonzero" stroke="none" stroke-width="0" stroke-linecap="butt" stroke-linejoin="miter" stroke-miterlimit="10" stroke-dasharray="" stroke-dashoffset="0" style="mix-blend-mode: normal"><path d="M-52.78716,816.16876v-834.83483h1588.58859v834.83483z" fill="url(#color-1)"/><path d="M1044.81044,-204.85226v-1.5015h1.5015v1.5015z" fill="url(#color-2)"/><path d="M1082.58258,400c0,180.77789 -148.90229,327.32733 -332.58258,327.32733c-183.68029,0 -332.58258,-146.54944 -332.58258,-327.32733c0,-180.77789 148.90229,-327.32733 332.58258,-327.32733c183.68029,0 332.58258,146.54944 332.58258,327.32733z" fill="url(#color-3)"/><path d="M650.56372,230.16471c92.31531,-54.04938 211.6708,-21.8272 266.58794,71.97024c54.91714,93.79744 24.59993,213.65097 -67.71538,267.70034c-92.31531,54.04938 -211.6708,21.8272 -266.58794,-71.97024c-54.91714,-93.79744 -24.59993,-213.65097 67.71538,-267.70034z" fill="url(#color-4)"/><path d="M658.27587,467.53085c-36.70693,-49.85737 -25.39748,-120.50935 25.26036,-157.80561c50.65784,-37.29626 121.48097,-27.11347 158.1879,22.74391c36.70693,49.85737 25.39748,120.50935 -25.26036,157.80561c-50.65784,37.29626 -121.48097,27.11347 -158.1879,-22.74391z" fill="url(#color-5)"/><path d="M783.51697,463.30422c-34.40951,18.21841 -77.30998,4.64509 -95.8209,-30.31686c-18.51091,-34.96195 -5.62255,-78.07316 28.78695,-96.29157c34.40951,-18.21841 77.30998,-4.64509 95.8209,30.31686c18.51091,34.96195 5.62255,78.07316 -28.78695,96.29157z" fill="url(#color-6)"/><path d="M712.72991,417.63332c-9.58473,-20.25845 -0.6683,-44.57587 19.9154,-54.31448c20.5837,-9.73861 45.04004,-1.2106 54.62477,19.04785c9.58473,20.25845 0.6683,44.57587 -19.9154,54.31448c-20.5837,9.73861 -45.04004,1.2106 -54.62477,-19.04785z" fill="url(#color-7)"/><path d="M745.10903,371.98929c15.22545,-2.65853 29.75786,7.72714 32.45907,23.19703c2.70121,15.46989 -7.45169,30.16587 -22.67714,32.8244c-15.22545,2.65853 -29.75786,-7.72714 -32.45907,-23.19703c-2.70121,-15.46989 7.45169,-30.16587 22.67714,-32.8244z" fill="url(#color-8)"/><path d="M767.7494,400c0,9.64783 -7.94668,17.46893 -17.7494,17.46893c-9.80272,0 -17.7494,-7.82111 -17.7494,-17.46893c0,-9.64783 7.94668,-17.46893 17.7494,-17.46893c9.80272,0 17.7494,7.82111 17.7494,17.46893z" fill="url(#color-9)"/><path d="M744.69325,390.93616c4.92672,-2.88453 11.29653,-1.16488 14.22737,3.84094c2.93084,5.00582 1.31286,11.40221 -3.61386,14.28674c-4.92672,2.88453 -11.29653,1.16488 -14.22737,-3.84094c-2.93084,-5.00582 -1.31286,-11.40221 3.61386,-14.28674z" fill="url(#color-10)"/><path d="M745.10483,403.60401c-1.95899,-2.66081 -1.35542,-6.43139 1.3481,-8.42183c2.70353,-1.99044 6.48324,-1.447 8.44223,1.21381c1.95899,2.66081 1.35542,6.43139 -1.3481,8.42183c-2.70353,1.99044 -6.48324,1.447 -8.44223,-1.21381z" fill="url(#color-11)"/><path d="M751.78875,403.37844c-1.83638,0.97229 -4.12591,0.2479 -5.11381,-1.61796c-0.9879,-1.86586 -0.30007,-4.16664 1.53631,-5.13893c1.83638,-0.97229 4.12591,-0.2479 5.11381,1.61796c0.9879,1.86586 0.30007,4.16664 -1.53631,5.13893z" fill="url(#color-12)"/><path d="M748.01096,400.94106c-0.51152,-1.08116 -0.03567,-2.37894 1.06285,-2.89868c1.09852,-0.51973 2.40371,-0.06461 2.91524,1.01655c0.51152,1.08116 0.03567,2.37894 -1.06285,2.89868c-1.09852,0.51973 -2.40371,0.06461 -2.91524,-1.01655z" fill="url(#color-13)"/><path d="M749.73898,398.50511c0.81256,-0.14188 1.58813,0.41239 1.73229,1.23799c0.14416,0.8256 -0.39769,1.6099 -1.21024,1.75179c-0.81256,0.14188 -1.58813,-0.41239 -1.73229,-1.23799c-0.14416,-0.8256 0.39769,-1.6099 1.21024,-1.75179z" fill="url(#color-14)"/><path d="M641.63664,302.8979c0,180.77789 -148.90229,327.32733 -332.58258,327.32733c-183.68029,0 -332.58258,-146.54943 -332.58258,-327.32733c0,-180.77789 148.90229,-327.32732 332.58259,-327.32732c183.68029,0 332.58259,146.54943 332.58259,327.32732z" fill="url(#color-15)"/><path d="M209.61777,133.06261c92.31531,-54.04937 211.6708,-21.8272 266.58794,71.97024c54.91714,93.79744 24.59993,213.65096 -67.71538,267.70034c-92.31531,54.04938 -211.6708,21.8272 -266.58794,-71.97024c-54.91714,-93.79744 -24.59993,-213.65096 67.71538,-267.70034z" fill="url(#color-16)"/><path d="M217.32993,370.42875c-36.70692,-49.85738 -25.39748,-120.50935 25.26036,-157.80561c50.65783,-37.29626 121.48097,-27.11346 158.18789,22.74391c36.70693,49.85738 25.39748,120.50935 -25.26036,157.80561c-50.65783,37.29626 -121.48097,27.11347 -158.18789,-22.74391z" fill="url(#color-17)"/><path d="M342.57102,366.20212c-34.40951,18.21842 -77.30998,4.64509 -95.8209,-30.31687c-18.51091,-34.96196 -5.62255,-78.07316 28.78696,-96.29157c34.40951,-18.21842 77.30998,-4.64509 95.8209,30.31687c18.51091,34.96195 5.62255,78.07316 -28.78696,96.29158z" fill="url(#color-18)"/><path d="M271.78397,320.53121c-9.58473,-20.25845 -0.6683,-44.57586 19.9154,-54.31448c20.5837,-9.73861 45.04004,-1.2106 54.62477,19.04785c9.58473,20.25845 0.6683,44.57586 -19.9154,54.31448c-20.5837,9.73862 -45.04004,1.2106 -54.62477,-19.04785z" fill="url(#color-19)"/><path d="M304.16309,274.88718c15.22545,-2.65852 29.75786,7.72714 32.45907,23.19703c2.70121,15.46989 -7.45169,30.16588 -22.67714,32.8244c-15.22545,2.65853 -29.75786,-7.72714 -32.45907,-23.19703c-2.70121,-15.46989 7.45169,-30.16588 22.67714,-32.8244z" fill="url(#color-20)"/><path d="M326.80345,302.8979c0,9.64783 -7.94668,17.46893 -17.7494,17.46893c-9.80272,0 -17.7494,-7.82111 -17.7494,-17.46893c0,-9.64783 7.94668,-17.46894 17.7494,-17.46894c9.80272,0 17.7494,7.82111 17.7494,17.46894z" fill="url(#color-21)"/><path d="M303.7473,293.83406c4.92672,-2.88453 11.29653,-1.16488 14.22737,3.84094c2.93084,5.00582 1.31286,11.4022 -3.61386,14.28674c-4.92672,2.88453 -11.29653,1.16488 -14.22737,-3.84093c-2.93084,-5.00582 -1.31286,-11.40221 3.61386,-14.28674z" fill="url(#color-22)"/><path d="M304.15888,306.50191c-1.95899,-2.66081 -1.35542,-6.43139 1.34811,-8.42183c2.70353,-1.99044 6.48325,-1.447 8.44223,1.2138c1.95899,2.66081 1.35542,6.43139 -1.34811,8.42183c-2.70353,1.99044 -6.48325,1.44701 -8.44223,-1.2138z" fill="url(#color-23)"/><path d="M310.8428,306.27634c-1.83638,0.97229 -4.1259,0.2479 -5.1138,-1.61797c-0.9879,-1.86586 -0.30006,-4.16664 1.53632,-5.13892c1.83638,-0.97229 4.1259,-0.2479 5.1138,1.61797c0.9879,1.86586 0.30006,4.16663 -1.53632,5.13892z" fill="url(#color-24)"/><path d="M307.06501,303.83896c-0.51152,-1.08116 -0.03566,-2.37894 1.06286,-2.89868c1.09852,-0.51973 2.40372,-0.06461 2.91524,1.01656c0.51152,1.08116 0.03566,2.37894 -1.06286,2.89868c-1.09852,0.51973 -2.40372,0.06461 -2.91524,-1.01656z" fill="url(#color-25)"/><path d="M308.79303,301.40301c0.81256,-0.14188 1.58813,0.41238 1.73229,1.23799c0.14416,0.8256 -0.39768,1.6099 -1.21024,1.75178c-0.81256,0.14188 -1.58813,-0.41238 -1.73229,-1.23798c-0.14416,-0.8256 0.39768,-1.60991 1.21024,-1.75179z" fill="url(#color-26)"/><path d="M1510,473.06306c0,180.77789 -148.9023,327.32733 -332.58259,327.32733c-183.68029,0 -332.58258,-146.54944 -332.58258,-327.32733c0,-180.77789 148.90229,-327.32732 332.58259,-327.32732c183.68029,0 332.58259,146.54943 332.58259,327.32732z" fill="url(#color-27)"/><path d="M1077.98114,303.22777c92.31531,-54.04937 211.6708,-21.8272 266.58794,71.97024c54.91714,93.79744 24.59993,213.65096 -67.71538,267.70034c-92.31532,54.04938 -211.6708,21.8272 -266.58794,-71.97024c-54.91714,-93.79744 -24.59993,-213.65096 67.71538,-267.70034z" fill="url(#color-28)"/><path d="M1085.69329,540.59391c-36.70693,-49.85737 -25.39748,-120.50935 25.26035,-157.80561c50.65783,-37.29626 121.48097,-27.11346 158.18789,22.74391c36.70692,49.85737 25.39748,120.50935 -25.26035,157.80561c-50.65783,37.29626 -121.48097,27.11346 -158.18789,-22.74391z" fill="url(#color-29)"/><path d="M1210.93439,536.36728c-34.40951,18.21842 -77.30998,4.64509 -95.8209,-30.31686c-18.51091,-34.96196 -5.62255,-78.07316 28.78696,-96.29158c34.40951,-18.21841 77.30998,-4.64509 95.8209,30.31687c18.51091,34.96195 5.62255,78.07316 -28.78696,96.29158z" fill="url(#color-30)"/><path d="M1140.14733,490.69638c-9.58473,-20.25845 -0.6683,-44.57587 19.9154,-54.31448c20.5837,-9.73861 45.04004,-1.2106 54.62477,19.04785c9.58473,20.25845 0.6683,44.57587 -19.9154,54.31448c-20.5837,9.73862 -45.04004,1.2106 -54.62477,-19.04785z" fill="url(#color-31)"/><path d="M1172.52645,445.05235c15.22545,-2.65853 29.75786,7.72714 32.45907,23.19703c2.70121,15.46989 -7.45169,30.16587 -22.67714,32.8244c-15.22545,2.65853 -29.75786,-7.72714 -32.45907,-23.19703c-2.70121,-15.46989 7.45169,-30.16587 22.67714,-32.8244z" fill="url(#color-32)"/><path d="M1195.16682,473.06306c0,9.64783 -7.94668,17.46893 -17.7494,17.46893c-9.80272,0 -17.7494,-7.82111 -17.7494,-17.46893c0,-9.64783 7.94668,-17.46893 17.7494,-17.46893c9.80272,0 17.7494,7.82111 17.7494,17.46893z" fill="url(#color-33)"/><path d="M1172.11066,463.99923c4.92672,-2.88453 11.29653,-1.16489 14.22737,3.84094c2.93084,5.00582 1.31286,11.4022 -3.61386,14.28673c-4.92672,2.88453 -11.29653,1.16488 -14.22737,-3.84093c-2.93084,-5.00582 -1.31286,-11.40221 3.61386,-14.28674z" fill="url(#color-34)"/><path d="M1172.52225,476.66708c-1.95899,-2.66081 -1.35542,-6.4314 1.34811,-8.42183c2.70352,-1.99044 6.48324,-1.44701 8.44223,1.2138c1.95899,2.66081 1.35542,6.4314 -1.34811,8.42183c-2.70352,1.99044 -6.48324,1.44701 -8.44223,-1.2138z" fill="url(#color-35)"/><path d="M1179.20616,476.44151c-1.83638,0.97229 -4.1259,0.2479 -5.1138,-1.61797c-0.9879,-1.86586 -0.30006,-4.16663 1.53632,-5.13892c1.83638,-0.97229 4.12591,-0.2479 5.1138,1.61797c0.9879,1.86586 0.30006,4.16664 -1.53632,5.13892z" fill="url(#color-36)"/><path d="M1175.42837,474.00412c-0.51152,-1.08116 -0.03567,-2.37894 1.06285,-2.89867c1.09852,-0.51974 2.40372,-0.06461 2.91524,1.01655c0.51152,1.08116 0.03567,2.37894 -1.06285,2.89867c-1.09852,0.51974 -2.40372,0.06461 -2.91524,-1.01655z" fill="url(#color-37)"/><path d="M1177.15639,471.56818c0.81256,-0.14188 1.58813,0.41238 1.73229,1.23798c0.14416,0.8256 -0.39768,1.60991 -1.21024,1.75179c-0.81256,0.14188 -1.58813,-0.41238 -1.73229,-1.23799c-0.14416,-0.8256 0.39768,-1.6099 1.21024,-1.75178z" fill="url(#color-38)"/><path d="M946.59217,123.13853c151.0105,99.38046 191.57146,304.32786 90.59544,457.76284c-100.97602,153.43498 -305.25145,197.25483 -456.26194,97.87437c-151.0105,-99.38046 -191.57146,-304.32786 -90.59544,-457.76284c100.97602,-153.43498 305.25145,-197.25483 456.26194,-97.87437z" fill="url(#color-39)"/><path d="M567.2253,390.65507c5.59977,-106.82741 98.13039,-188.81573 206.67291,-183.12606c108.54252,5.68968 191.99412,96.90279 186.39434,203.7302c-5.59977,106.82741 -98.13039,188.81573 -206.67291,183.12606c-108.54252,-5.68968 -191.99412,-96.90279 -186.39434,-203.7302z" fill="url(#color-40)"/><path d="M769.74573,514.70198c-61.82691,3.25417 -114.6279,-45.0331 -117.93432,-107.85264c-3.30642,-62.81954 44.13381,-116.38287 105.96071,-119.63705c61.82691,-3.25417 114.6279,45.0331 117.93432,107.85264c3.30642,62.81954 -44.13381,116.38287 -105.96071,119.63705z" fill="url(#color-41)"/><path d="M835.06484,407.7599c-3.69769,38.7589 -38.62001,67.13348 -78.00118,63.37643c-39.38117,-3.75706 -68.30835,-38.22305 -64.61066,-76.98194c3.69769,-38.7589 38.62001,-67.13348 78.00118,-63.37643c39.38117,3.75706 68.30835,38.22305 64.61066,76.98194z" fill="url(#color-42)"/><path d="M757.99991,441.78393c-22.19173,-3.13036 -37.60327,-23.94679 -34.42266,-46.4948c3.18061,-22.54802 23.74896,-38.28913 45.94068,-35.15878c22.19173,3.13036 37.60327,23.94679 34.42266,46.4948c-3.18061,22.54802 -23.74896,38.28913 -45.94068,35.15878z" fill="url(#color-43)"/><path d="M737.67178,389.6442c6.14924,-14.17987 22.81379,-20.60995 37.22132,-14.36198c14.40753,6.24796 21.1022,22.808 14.95296,36.98788c-6.14924,14.17987 -22.81379,20.60995 -37.22132,14.36198c-14.40753,-6.24796 -21.1022,-22.808 -14.95296,-36.98788z" fill="url(#color-44)"/><path d="M773.51644,386.13041c8.05919,5.30377 10.22386,16.24149 4.83493,24.43007c-5.38893,8.18858 -16.29078,10.52717 -24.34997,5.2234c-8.05919,-5.30377 -10.22386,-16.24149 -4.83493,-24.43007c5.38893,-8.18858 16.29078,-10.52717 24.34997,-5.2234z" fill="url(#color-45)"/><path d="M753.27024,400.40734c0.29885,-5.70121 5.23706,-10.07679 11.0298,-9.77314c5.79274,0.30365 10.24641,5.17154 9.94757,10.87275c-0.29885,5.70121 -5.23706,10.07679 -11.0298,9.77314c-5.79274,-0.30365 -10.24641,-5.17154 -9.94757,-10.87275z" fill="url(#color-46)"/><path d="M764.07843,407.02752c-3.2996,0.17367 -6.11751,-2.40335 -6.29397,-5.75592c-0.17646,-3.35258 2.35535,-6.21117 5.65495,-6.38484c3.2996,-0.17367 6.11751,2.40335 6.29397,5.75592c0.17646,3.35258 -2.35535,6.21117 -5.65495,6.38484z" fill="url(#color-47)"/><path d="M767.5644,401.3202c-0.19734,2.0685 -2.06109,3.5828 -4.1628,3.38229c-2.10171,-0.20051 -3.6455,-2.0399 -3.44816,-4.1084c0.19734,-2.0685 2.06109,-3.5828 4.1628,-3.38229c2.10171,0.20051 3.6455,2.0399 3.44816,4.1084z" fill="url(#color-48)"/><path d="M763.45157,403.136c-1.18434,-0.16706 -2.00682,-1.278 -1.83708,-2.48135c0.16974,-1.20335 1.26745,-2.04343 2.45178,-1.87637c1.18434,0.16706 2.00682,1.278 1.83708,2.48135c-0.16974,1.20335 -1.26745,2.04343 -2.45178,1.87637z" fill="url(#color-49)"/><path d="M762.36669,400.35339c0.32818,-0.75676 1.21753,-1.09992 1.98644,-0.76648c0.76891,0.33344 1.12619,1.21722 0.79802,1.97398c-0.32818,0.75676 -1.21753,1.09992 -1.98644,0.76648c-0.76891,-0.33344 -1.12619,-1.21722 -0.79802,-1.97398z" fill="url(#color-50)"/><path d="M623.07448,438.09638c151.0105,99.38046 191.57146,304.32786 90.59544,457.76284c-100.97602,153.43498 -305.25145,197.25483 -456.26194,97.87437c-151.0105,-99.38046 -191.57146,-304.32786 -90.59544,-457.76284c100.97602,-153.43498 305.25145,-197.25483 456.26194,-97.87437z" fill="url(#color-51)"/><path d="M243.7076,705.61292c5.59977,-106.82741 98.13039,-188.81573 206.67291,-183.12606c108.54252,5.68968 191.99412,96.90279 186.39434,203.7302c-5.59977,106.82741 -98.13039,188.81573 -206.67291,183.12606c-108.54252,-5.68968 -191.99412,-96.90279 -186.39434,-203.7302z" fill="url(#color-52)"/><path d="M446.22804,829.65983c-61.82691,3.25417 -114.6279,-45.0331 -117.93432,-107.85264c-3.30642,-62.81954 44.13381,-116.38287 105.96071,-119.63705c61.82691,-3.25417 114.6279,45.0331 117.93432,107.85264c3.30642,62.81954 -44.13381,116.38287 -105.96071,119.63705z" fill="url(#color-53)"/><path d="M511.54715,722.71775c-3.69769,38.7589 -38.62001,67.13348 -78.00118,63.37643c-39.38117,-3.75706 -68.30835,-38.22305 -64.61066,-76.98194c3.69769,-38.7589 38.62001,-67.13348 78.00118,-63.37643c39.38117,3.75706 68.30835,38.22305 64.61066,76.98194z" fill="url(#color-54)"/><path d="M434.48222,756.74178c-22.19173,-3.13036 -37.60327,-23.94679 -34.42266,-46.4948c3.18061,-22.54802 23.74896,-38.28913 45.94068,-35.15878c22.19173,3.13036 37.60327,23.94679 34.42266,46.4948c-3.18061,22.54802 -23.74896,38.28913 -45.94068,35.15878z" fill="url(#color-55)"/><path d="M414.15409,704.60205c6.14924,-14.17987 22.81379,-20.60995 37.22132,-14.36198c14.40753,6.24796 21.1022,22.808 14.95296,36.98788c-6.14924,14.17987 -22.81379,20.60995 -37.22132,14.36198c-14.40753,-6.24796 -21.1022,-22.808 -14.95296,-36.98788z" fill="url(#color-56)"/><path d="M449.99875,701.08826c8.05919,5.30377 10.22386,16.24149 4.83493,24.43007c-5.38893,8.18858 -16.29078,10.52717 -24.34997,5.2234c-8.05919,-5.30377 -10.22386,-16.24149 -4.83493,-24.43007c5.38893,-8.18858 16.29078,-10.52717 24.34997,-5.2234z" fill="url(#color-57)"/><path d="M429.75255,715.36519c0.29885,-5.70121 5.23706,-10.07679 11.0298,-9.77314c5.79274,0.30365 10.24641,5.17154 9.94757,10.87275c-0.29885,5.70121 -5.23706,10.07679 -11.0298,9.77314c-5.79274,-0.30365 -10.24641,-5.17154 -9.94757,-10.87275z" fill="url(#color-58)"/><path d="M440.56074,721.98537c-3.2996,0.17367 -6.11751,-2.40335 -6.29397,-5.75592c-0.17646,-3.35258 2.35535,-6.21117 5.65495,-6.38484c3.2996,-0.17367 6.11751,2.40335 6.29397,5.75592c0.17646,3.35258 -2.35535,6.21117 -5.65495,6.38484z" fill="url(#color-59)"/><path d="M444.04671,716.27805c-0.19734,2.0685 -2.06109,3.5828 -4.1628,3.38229c-2.10171,-0.20051 -3.6455,-2.0399 -3.44816,-4.1084c0.19734,-2.0685 2.06109,-3.5828 4.1628,-3.38229c2.10171,0.20051 3.6455,2.0399 3.44816,4.1084z" fill="url(#color-60)"/><path d="M439.93388,718.09385c-1.18434,-0.16706 -2.00682,-1.278 -1.83708,-2.48135c0.16974,-1.20335 1.26745,-2.04343 2.45178,-1.87637c1.18434,0.16706 2.00682,1.278 1.83708,2.48135c-0.16974,1.20335 -1.26745,2.04343 -2.45178,1.87637z" fill="url(#color-61)"/><path d="M438.849,715.31124c0.32818,-0.75676 1.21753,-1.09992 1.98644,-0.76648c0.76891,0.33344 1.12619,1.21722 0.79802,1.97398c-0.32818,0.75676 -1.21753,1.09992 -1.98644,0.76648c-0.76891,-0.33344 -1.12619,-1.21722 -0.79802,-1.97398z" fill="url(#color-62)"/><path d="M1242.59202,-193.7336c151.0105,99.38046 191.57146,304.32786 90.59544,457.76284c-100.97602,153.43498 -305.25145,197.25483 -456.26194,97.87437c-151.0105,-99.38046 -191.57146,-304.32786 -90.59544,-457.76284c100.97602,-153.43498 305.25145,-197.25483 456.26194,-97.87437z" fill="url(#color-63)"/><path d="M863.22514,73.78294c5.59977,-106.82741 98.13039,-188.81573 206.67291,-183.12606c108.54252,5.68968 191.99412,96.90279 186.39434,203.7302c-5.59977,106.82741 -98.13039,188.81573 -206.67291,183.12606c-108.54252,-5.68968 -191.99412,-96.90279 -186.39434,-203.7302z" fill="url(#color-64)"/><path d="M1065.74557,197.82985c-61.82691,3.25417 -114.6279,-45.0331 -117.93432,-107.85264c-3.30642,-62.81954 44.13381,-116.38287 105.96071,-119.63705c61.82691,-3.25417 114.6279,45.0331 117.93432,107.85264c3.30642,62.81954 -44.13381,116.38287 -105.96071,119.63705z" fill="url(#color-65)"/><path d="M1131.06469,90.88776c-3.69769,38.7589 -38.62001,67.13348 -78.00118,63.37643c-39.38117,-3.75706 -68.30835,-38.22305 -64.61066,-76.98194c3.69769,-38.7589 38.62001,-67.13348 78.00118,-63.37643c39.38117,3.75706 68.30835,38.22305 64.61066,76.98194z" fill="url(#color-66)"/><path d="M1053.99975,124.9118c-22.19173,-3.13036 -37.60327,-23.94679 -34.42266,-46.4948c3.18061,-22.54802 23.74896,-38.28913 45.94068,-35.15878c22.19173,3.13036 37.60327,23.94679 34.42266,46.4948c-3.18061,22.54802 -23.74896,38.28913 -45.94068,35.15878z" fill="url(#color-67)"/><path d="M1033.67163,72.77206c6.14924,-14.17987 22.81379,-20.60995 37.22132,-14.36198c14.40753,6.24796 21.1022,22.808 14.95296,36.98788c-6.14924,14.17987 -22.81379,20.60995 -37.22132,14.36198c-14.40753,-6.24796 -21.1022,-22.808 -14.95296,-36.98788z" fill="url(#color-68)"/><path d="M1069.51629,69.25827c8.05919,5.30377 10.22386,16.24149 4.83493,24.43007c-5.38893,8.18858 -16.29078,10.52717 -24.34997,5.2234c-8.05919,-5.30377 -10.22386,-16.24149 -4.83493,-24.43007c5.38893,-8.18858 16.29078,-10.52717 24.34997,-5.2234z" fill="url(#color-69)"/><path d="M1049.27009,83.5352c0.29885,-5.70121 5.23706,-10.07679 11.0298,-9.77314c5.79274,0.30365 10.24641,5.17154 9.94757,10.87275c-0.29885,5.70121 -5.23706,10.07679 -11.0298,9.77314c-5.79274,-0.30365 -10.24641,-5.17154 -9.94757,-10.87275z" fill="url(#color-70)"/><path d="M1060.07828,90.15539c-3.2996,0.17367 -6.11751,-2.40335 -6.29397,-5.75592c-0.17646,-3.35258 2.35535,-6.21117 5.65495,-6.38484c3.2996,-0.17367 6.11751,2.40335 6.29397,5.75592c0.17646,3.35258 -2.35535,6.21117 -5.65495,6.38484z" fill="url(#color-71)"/><path d="M1063.56425,84.44806c-0.19734,2.0685 -2.06109,3.5828 -4.1628,3.38229c-2.10171,-0.20051 -3.6455,-2.0399 -3.44816,-4.1084c0.19734,-2.0685 2.06109,-3.5828 4.1628,-3.38229c2.10171,0.20051 3.6455,2.0399 3.44816,4.1084z" fill="url(#color-72)"/><path d="M1059.45142,86.26387c-1.18434,-0.16706 -2.00682,-1.278 -1.83708,-2.48135c0.16974,-1.20335 1.26745,-2.04343 2.45178,-1.87637c1.18434,0.16706 2.00682,1.278 1.83708,2.48135c-0.16974,1.20335 -1.26745,2.04343 -2.45178,1.87637z" fill="url(#color-73)"/><path d="M1058.36654,83.48126c0.32818,-0.75676 1.21753,-1.09992 1.98644,-0.76648c0.76891,0.33344 1.12619,1.21722 0.79802,1.97398c-0.32818,0.75676 -1.21753,1.09992 -1.98644,0.76648c-0.76891,-0.33344 -1.12619,-1.21722 -0.79802,-1.97398z" fill="url(#color-74)"/></g></g></svg>