<svg version="1.1" xmlns="http://www.w3.org/2000/svg" xmlns:xlink="http://www.w3.org/1999/xlink" width="174.48346" height="258" viewBox="0,0,174.48346,258"><defs><linearGradient x1="694.16895" y1="399.52395" x2="805.83106" y2="399.52395" gradientUnits="userSpaceOnUse" id="color-1"><stop offset="0" stop-color="#ffffff"/><stop offset="1" stop-color="#7d7d7d"/></linearGradient><linearGradient x1="712.81423" y1="399.52395" x2="787.18579" y2="399.52395" gradientUnits="userSpaceOnUse" id="color-2"><stop offset="0" stop-color="#7d7d7d"/><stop offset="1" stop-color="#ffffff"/></linearGradient><linearGradient x1="729.05026" y1="399.52395" x2="770.94975" y2="399.52395" gradientUnits="userSpaceOnUse" id="color-3"><stop offset="0" stop-color="#ffffff"/><stop offset="1" stop-color="#7d7d7d"/></linearGradient><linearGradient x1="739.21088" y1="399.52395" x2="760.78913" y2="399.52395" gradientUnits="userSpaceOnUse" id="color-4"><stop offset="0" stop-color="#7d7d7d"/><stop offset="1" stop-color="#ffffff"/></linearGradient></defs><g transform="translate(-662.75827,-271)"><g data-paper-data="{&quot;isPaintingLayer&quot;:true}" fill-rule="nonzero" stroke="none" stroke-linecap="butt" stroke-linejoin="miter" stroke-miterlimit="10" stroke-dasharray="" stroke-dashoffset="0" style="mix-blend-mode: normal"><path d="M662.75827,529v-258h174.48346v258z" fill="#73a5a2" stroke-width="0"/><path d="M694.16895,447.8131v-96.57829h111.6621v96.57829z" fill="url(#color-1)" stroke-width="0"/><path d="M712.81423,399.52395c0,-20.53714 16.64864,-37.18578 37.18578,-37.18578c20.53714,0 37.18578,16.64864 37.18578,37.18578c0,20.53714 -16.64864,37.18578 -37.18578,37.18578c-20.53714,0 -37.18578,-16.64864 -37.18578,-37.18578z" fill="url(#color-2)" stroke-width="0"/><path d="M729.05026,399.52395c0,-11.57023 9.37952,-20.94974 20.94974,-20.94974c11.57023,0 20.94974,9.37952 20.94974,20.94974c0,11.57023 -9.37952,20.94974 -20.94974,20.94974c-11.57023,0 -20.94974,-9.37952 -20.94974,-20.94974z" fill="url(#color-3)" stroke-width="0"/><path d="M739.21088,399.52395c0,-5.95866 4.83045,-10.78912 10.78912,-10.78912c5.95866,0 10.78912,4.83045 10.78912,10.78912c0,5.95866 -4.83045,10.78912 -10.78912,10.78912c-5.95866,0 -10.78912,-4.83045 -10.78912,-10.78912z" fill="url(#color-4)" stroke-width="0"/><text transform="translate(666.17188,291.28599) scale(0.44805,0.44805)" font-size="40" xml:space="preserve" fill="#000000" fill-rule="nonzero" stroke="none" stroke-width="1" stroke-linecap="butt" stroke-linejoin="miter" stroke-miterlimit="10" stroke-dasharray="" stroke-dashoffset="0" font-family="Sans Serif" font-weight="normal" text-anchor="start" style="mix-blend-mode: normal"><tspan x="0" dy="0">sWAV AudioWidget</tspan></text></g></g></svg>