<svg version="1.1" xmlns="http://www.w3.org/2000/svg" xmlns:xlink="http://www.w3.org/1999/xlink" width="88.83333" height="77.66217" viewBox="0,0,88.83333,77.66217"><defs><linearGradient x1="705.58333" y1="400" x2="794.41667" y2="400" gradientUnits="userSpaceOnUse" id="color-1"><stop offset="0" stop-color="#ffffff"/><stop offset="1" stop-color="#7d7d7d"/></linearGradient><linearGradient x1="720.41667" y1="400" x2="779.58333" y2="400" gradientUnits="userSpaceOnUse" id="color-2"><stop offset="0" stop-color="#7d7d7d"/><stop offset="1" stop-color="#ffffff"/></linearGradient><linearGradient x1="733.33333" y1="400" x2="766.66667" y2="400" gradientUnits="userSpaceOnUse" id="color-3"><stop offset="0" stop-color="#ffffff"/><stop offset="1" stop-color="#7d7d7d"/></linearGradient><linearGradient x1="741.41666" y1="400" x2="758.58334" y2="400" gradientUnits="userSpaceOnUse" id="color-4"><stop offset="0" stop-color="#7d7d7d"/><stop offset="1" stop-color="#ffffff"/></linearGradient></defs><g transform="translate(-705.58333,-361.58333)"><g data-paper-data="{&quot;isPaintingLayer&quot;:true}" fill-rule="nonzero" stroke="none" stroke-linecap="butt" stroke-linejoin="miter" stroke-miterlimit="10" stroke-dasharray="" stroke-dashoffset="0" style="mix-blend-mode: normal"><path d="M705.58333,438.41667v-76.83333h88.83333v76.83333z" fill="url(#color-1)" stroke-width="0"/><path d="M720.41667,400c0,-16.33842 13.24491,-29.58333 29.58333,-29.58333c16.33842,0 29.58333,13.24491 29.58333,29.58333c0,16.33842 -13.24491,29.58333 -29.58333,29.58333c-16.33842,0 -29.58333,-13.24491 -29.58333,-29.58333z" fill="url(#color-2)" stroke-width="0"/><path d="M733.33333,400c0,-9.20475 7.46192,-16.66667 16.66667,-16.66667c9.20475,0 16.66667,7.46192 16.66667,16.66667c0,9.20475 -7.46192,16.66667 -16.66667,16.66667c-9.20475,0 -16.66667,-7.46192 -16.66667,-16.66667z" fill="url(#color-3)" stroke-width="0"/><path d="M741.41666,400c0,-4.74044 3.84289,-8.58334 8.58334,-8.58334c4.74044,0 8.58334,3.84289 8.58334,8.58334c0,4.74044 -3.84289,8.58334 -8.58334,8.58334c-4.74044,0 -8.58334,-3.84289 -8.58334,-8.58334z" fill="url(#color-4)" stroke-width="0"/><text transform="translate(707.39063,434.03487) scale(0.42827,0.42827)" font-size="40" xml:space="preserve" fill="#7d7d7d" fill-rule="nonzero" stroke="none" stroke-width="1" stroke-linecap="butt" stroke-linejoin="miter" stroke-miterlimit="10" stroke-dasharray="" stroke-dashoffset="0" font-family="Sans Serif" font-weight="normal" text-anchor="start" style="mix-blend-mode: normal"><tspan x="0" dy="0">sWAV</tspan></text></g></g></svg>