<svg version="1.1" xmlns="http://www.w3.org/2000/svg" xmlns:xlink="http://www.w3.org/1999/xlink" width="1184.68468" height="666.58806" viewBox="0,0,1184.68468,666.58806"><defs><linearGradient x1="-184.80706" y1="-10.95928" x2="130.75304" y2="-10.95928" gradientUnits="userSpaceOnUse" id="color-1"><stop offset="0" stop-color="#ffffff"/><stop offset="1" stop-color="#7d7d7d"/></linearGradient><linearGradient x1="-132.11501" y1="-10.95928" x2="78.06099" y2="-10.95928" gradientUnits="userSpaceOnUse" id="color-2"><stop offset="0" stop-color="#7d7d7d"/><stop offset="1" stop-color="#ffffff"/></linearGradient><linearGradient x1="-86.23154" y1="-10.95928" x2="32.17752" y2="-10.95928" gradientUnits="userSpaceOnUse" id="color-3"><stop offset="0" stop-color="#ffffff"/><stop offset="1" stop-color="#7d7d7d"/></linearGradient><linearGradient x1="-57.51736" y1="-10.95928" x2="3.46334" y2="-10.95928" gradientUnits="userSpaceOnUse" id="color-4"><stop offset="0" stop-color="#7d7d7d"/><stop offset="1" stop-color="#ffffff"/></linearGradient></defs><g transform="translate(210.44482,201.77065)"><g data-paper-data="{&quot;isPaintingLayer&quot;:true}" fill-rule="nonzero" stroke="none" stroke-linecap="butt" stroke-linejoin="miter" stroke-miterlimit="10" stroke-dasharray="" stroke-dashoffset="0" style="mix-blend-mode: normal"><path d="M-210.44482,464.81741v-627.62763h1184.68468v627.62763z" fill="#636363" stroke-width="0"/><text transform="translate(481.74737,-3.6322) scale(4.5783,4.5783)" font-size="40" xml:space="preserve" fill="#000000" fill-rule="nonzero" stroke="none" stroke-width="1" stroke-linecap="butt" stroke-linejoin="miter" stroke-miterlimit="10" stroke-dasharray="" stroke-dashoffset="0" font-family="Sans Serif" font-weight="normal" text-anchor="start" style="mix-blend-mode: normal"><tspan x="0" dy="0">sWAV</tspan></text><path d="M-184.80706,125.50714v-272.93281h315.56006v272.93281z" fill="url(#color-1)" stroke-width="0"/><path d="M-132.11501,-10.95928c0,-58.03849 47.04951,-105.088 105.088,-105.088c58.03849,0 105.088,47.04951 105.088,105.088c0,58.03849 -47.04951,105.088 -105.088,105.088c-58.03849,0 -105.088,-47.04951 -105.088,-105.088z" fill="url(#color-2)" stroke-width="0"/><path d="M-86.23154,-10.95928c0,-32.69777 26.50676,-59.20453 59.20453,-59.20453c32.69777,0 59.20453,26.50676 59.20453,59.20453c0,32.69777 -26.50676,59.20453 -59.20453,59.20453c-32.69777,0 -59.20453,-26.50676 -59.20453,-59.20453z" fill="url(#color-3)" stroke-width="0"/><path d="M-57.51736,-10.95928c0,-16.83933 13.65099,-30.49035 30.49035,-30.49035c16.83933,0 30.49035,13.65099 30.49035,30.49035c0,16.83933 -13.65099,30.49035 -30.49035,30.49035c-16.83933,0 -30.49035,-13.65099 -30.49035,-30.49035z" fill="url(#color-4)" stroke-width="0"/><text transform="translate(-178.38704,109.9418) scale(1.52133,1.52133)" font-size="40" xml:space="preserve" fill="#7d7d7d" fill-rule="nonzero" stroke="none" stroke-width="1" stroke-linecap="butt" stroke-linejoin="miter" stroke-miterlimit="10" stroke-dasharray="" stroke-dashoffset="0" font-family="Sans Serif" font-weight="normal" text-anchor="start" style="mix-blend-mode: normal"><tspan x="0" dy="0">sWAV</tspan></text><text transform="translate(17.78341,188.54114) scale(0.5,0.5)" font-size="40" xml:space="preserve" fill="#000000" fill-rule="nonzero" stroke="none" stroke-width="1" stroke-linecap="butt" stroke-linejoin="miter" stroke-miterlimit="10" stroke-dasharray="" stroke-dashoffset="0" font-family="Sans Serif" font-weight="normal" text-anchor="start" style="mix-blend-mode: normal"><tspan x="0" dy="0">sWAV is a simple audio player widget for Dimulo that allows loading music from a URL, or playing a</tspan><tspan x="0" dy="46.15px">randomized song from the Offline Song Library</tspan></text><text transform="translate(232.49812,434.03663) scale(2.38704,2.38704)" font-size="40" xml:space="preserve" fill="#000000" fill-rule="nonzero" stroke="none" stroke-width="1" stroke-linecap="butt" stroke-linejoin="miter" stroke-miterlimit="10" stroke-dasharray="" stroke-dashoffset="0" font-family="Sans Serif" font-weight="normal" text-anchor="start" style="mix-blend-mode: normal"><tspan x="0" dy="0">Starting plugin..</tspan></text></g></g></svg>