<svg version="1.1" xmlns="http://www.w3.org/2000/svg" xmlns:xlink="http://www.w3.org/1999/xlink" width="92" height="92" viewBox="0,0,92,92"><g transform="translate(-479,-334.88078)"><g data-paper-data="{&quot;isPaintingLayer&quot;:true}" fill-rule="nonzero" stroke-linejoin="miter" stroke-miterlimit="10" stroke-dasharray="" stroke-dashoffset="0" style="mix-blend-mode: normal"><path d="M479,380.88078c0,-25.4051 20.5949,-46 46,-46c25.4051,0 46,20.5949 46,46c0,25.4051 -20.5949,46 -46,46c-25.4051,0 -46,-20.5949 -46,-46z" fill="#ffffff" stroke="none" stroke-width="0" stroke-linecap="butt"/><path d="M549,346.54744l-24.16667,24.16667" fill="none" stroke="#ff0000" stroke-width="0.5" stroke-linecap="round"/><path d="M495.66667,407.21411l23,-23" fill="none" stroke="#ff0000" stroke-width="0.5" stroke-linecap="round"/><path d="M496.33333,349.54744l19.66667,19.66667" fill="none" stroke="#ff0000" stroke-width="0.5" stroke-linecap="round"/><path d="M527.33333,382.54744l21.5,21.5" fill="none" stroke="#ff0000" stroke-width="0.5" stroke-linecap="round"/><path d="M513,375.54744c0,-4.78647 3.8802,-8.66667 8.66667,-8.66667c4.78647,0 8.66667,3.8802 8.66667,8.66667c0,4.78647 -3.8802,8.66667 -8.66667,8.66667c-4.78647,0 -8.66667,-3.8802 -8.66667,-8.66667z" fill="#ffffff" stroke="#ff0000" stroke-width="0.5" stroke-linecap="butt"/></g></g></svg>